<?xml version="1.0" encoding="UTF-8"?>
<svg id="Layer_1" xmlns="http://www.w3.org/2000/svg" version="1.1" viewBox="0 0 396.11 513.2">
  <!-- Generator: Adobe Illustrator 29.0.0, SVG Export Plug-In . SVG Version: 2.1.0 Build 186)  -->
  <defs>
    <style>
      .st0 {
        fill: #b9e4cf;
      }

      .st0, .st1, .st2, .st3, .st4, .st5, .st6 {
        fill-rule: evenodd;
      }

      .st1 {
        fill: #4267ff;
      }

      .st2 {
        fill: #a8692c;
      }

      .st3 {
        fill: #047641;
      }

      .st4 {
        fill: #ffcc02;
      }

      .st5 {
        fill: #ef4600;
      }

      .st6 {
        fill: #e19ac3;
      }
    </style>
  </defs>
  <g>
    <path class="st5" d="M144.09,440.73c-10.18,8.65-13.17,17.06-12.16,23.31,1.01,6.25,6.52,13.28,18.91,18.26,12.14,4.88,28.93,6.8,47.33,3.82,18.4-2.99,33.72-10.13,43.69-18.6,10.18-8.65,13.17-17.06,12.16-23.31-1.02-6.25-6.52-13.28-18.91-18.26-12.14-4.88-28.93-6.8-47.33-3.82-18.4,2.99-33.72,10.13-43.69,18.6ZM127.9,421.68c13.99-11.89,33.74-20.63,55.87-24.22,22.13-3.59,43.64-1.55,60.67,5.3,16.77,6.75,31.3,19.21,34.26,37.45,2.96,18.24-6.87,34.66-20.64,46.37-13.99,11.89-33.74,20.63-55.87,24.23-22.13,3.59-43.64,1.55-60.67-5.3-16.77-6.75-31.29-19.21-34.26-37.45-2.96-18.24,6.87-34.66,20.64-46.37Z"/>
    <g>
      <path d="M133.68,483.14s.06-.06.09-.04c.15.1.37.26.67.48.3.22.52.38.66.47.17.11.39.25.67.41.26.15.45.27.59.36.03.02.03.05,0,.1-.03.05-.06.06-.09.04-.29-.2-.52-.31-.69-.34-.16-.03-.29.02-.39.16-.08.12-.14.31-.19.58l-1.07,7.19-.53.17,5.83-3.83c.29-.19.49-.37.6-.54.31-.46.08-.94-.68-1.45-.04-.03-.04-.06-.01-.11.03-.05.07-.06.1-.03.14.09.34.24.59.43.28.21.54.39.75.54.2.14.44.28.71.44.24.14.44.26.6.37.04.03.04.06.01.11-.03.05-.07.06-.1.03-.22-.15-.43-.23-.63-.25-.21-.02-.45.03-.72.14-.27.11-.62.31-1.04.59l-6.33,4.15s-.07,0-.1-.02c-.04-.03-.05-.05-.05-.08l1.13-7.62c.12-.75.15-1.29.1-1.61s-.21-.57-.46-.74c-.03-.02-.03-.05,0-.1ZM137.23,490.39l-3.08-2.06.07-.29,3.28,2.2-.27.16Z"/>
      <path d="M124.33,485.07c-.03-.52.16-.98.56-1.36.36-.34.79-.54,1.28-.61.49-.07,1,0,1.5.19.51.19.96.49,1.34.9.04.04.17.2.4.49l2.31-2.18c.21-.2.34-.36.4-.49.06-.13.05-.27-.03-.42-.08-.15-.24-.35-.48-.61-.02-.02,0-.05.03-.09.04-.04.07-.05.09-.03.2.21.35.38.46.51l.65.71.66.68c.12.12.29.29.5.51.01.01,0,.04-.04.08-.04.04-.07.05-.08.04-.24-.26-.44-.43-.59-.52-.15-.09-.3-.11-.44-.07-.14.04-.31.16-.52.35l-4.71,4.45c-.2.19-.33.36-.39.49-.05.13-.04.28.03.43s.23.36.48.62c.02.02,0,.05-.03.09-.04.04-.07.05-.09.03l-.46-.51c-.26-.3-.47-.54-.63-.71-.14-.15-.28-.29-.4-.41-.13-.12-.24-.22-.33-.31-.26-.24-.49-.46-.67-.65-.51-.54-.77-1.07-.81-1.59ZM125.04,485.56c0,.45.2.9.62,1.35.25.26.47.4.66.42.19.01.43-.12.72-.4l2.14-2.02c-.13-.19-.3-.4-.53-.64-.5-.53-.97-.8-1.42-.81-.45,0-.91.21-1.39.67-.53.5-.8.98-.81,1.43ZM129.16,479.86c-.13,1.03-.39,2.36-.77,3.99l-.71-.41c.29-1.39.49-2.51.58-3.35.1-.84.11-1.52.03-2.02-.08-.5-.25-.9-.53-1.19-.02-.02,0-.05.03-.09.04-.04.07-.05.09-.03l1.23,1.3c.16.17.18.77.05,1.79Z"/>
      <path d="M128.32,477.21s-.08.03-.09.02c-.17-.31-.32-.53-.44-.65-.12-.12-.25-.17-.4-.16-.15.01-.34.09-.59.22l-5.68,3.13c-.25.14-.41.26-.5.38-.08.12-.11.26-.08.43.03.17.14.41.31.72,0,.02-.01.04-.06.07-.05.03-.08.03-.09.02l-2.72-4.93c-.04-.07-.02-.13.05-.17l1.49-.86s.05,0,.08.04c.03.04.03.07,0,.08-.42.26-.68.58-.8.95-.11.37-.06.75.16,1.14l.41.75c.16.29.3.49.42.6s.25.17.39.16c.14,0,.32-.07.55-.2l5.57-3.07c.22-.12.37-.24.45-.35s.11-.25.07-.4c-.03-.15-.12-.37-.28-.65l-.54-.98c-.22-.39-.54-.64-.96-.75-.42-.11-.9-.07-1.44.11-.02,0-.03,0-.05-.04-.01-.03-.02-.05-.02-.08,0-.03,0-.04.01-.05.56-.21,1.12-.47,1.68-.78.07-.04.12-.05.16-.04.04.01.09.06.13.13l2.83,5.14s-.01.04-.06.07ZM122.44,474.95c-.06.26.02.6.25,1l1.01,1.84-.26.14-1.03-1.88c-.22-.39-.44-.64-.66-.73s-.49-.06-.8.11c-.02,0-.04-.01-.06-.06-.03-.05-.03-.08-.02-.09l1-.54c.24-.13.41-.23.53-.31l.58-.34s.04.01.06.06.03.08.02.09c-.36.2-.57.43-.63.69Z"/>
      <path d="M125.21,470.8c-.07.14-.19.24-.36.3-.17.06-.32.05-.46-.02-.14-.07-.24-.2-.3-.37-.06-.19-.06-.34,0-.47.06-.13.18-.23.36-.29.18-.06.33-.06.47,0,.13.06.23.19.3.37.06.18.06.34-.01.48Z"/>
      <path d="M123.72,461.39l-.4.36-6.91.7c-.48.05-.82.17-1.02.35-.2.18-.28.47-.24.85,0,.02-.02.03-.08.04-.06,0-.08,0-.09-.02l-.04-.54c0-.28-.02-.51-.04-.69-.02-.17-.05-.4-.1-.69l-.07-.57s.02-.04.08-.05.08,0,.09.03c.04.39.17.66.41.82.23.16.59.21,1.07.16l7.34-.74ZM123.77,461.46s.01.08,0,.1l-7.11,7.19c-.33.33-.56.63-.68.89s-.17.51-.14.75c0,.03-.02.04-.08.05s-.08,0-.09-.03l-.04-.52c0-.11-.01-.27-.03-.46-.02-.2-.04-.37-.06-.5s-.04-.23-.04-.31c0-.06,0-.12.03-.17s.09-.1.19-.17c.16-.13.3-.26.44-.4l6.28-6.26,1.3-.24s.03.02.05.07ZM115.87,469.27v-.32s6.83-.69,6.83-.69c.48-.05.82-.17,1.01-.36.19-.19.27-.48.23-.86,0-.03.02-.04.08-.05.06,0,.08,0,.09.03.02.23.04.41.04.53l.06.7.09.71c.02.13.05.32.07.57,0,.02-.02.03-.08.04-.06,0-.08,0-.09-.02-.04-.4-.17-.67-.4-.82-.23-.15-.58-.2-1.06-.15l-6.87.69Z"/>
      <path d="M125.58,451.76c.05.01.08.04.07.07-.04.17-.11.44-.22.8-.1.36-.18.62-.22.78-.05.2-.1.46-.15.77-.05.29-.1.52-.13.67,0,.04-.04.05-.09.04-.05-.01-.08-.04-.07-.07.08-.34.11-.6.08-.76s-.12-.27-.29-.31c-.14-.03-.34-.02-.61.03l-7.11,1.5-.34-.44,5.62,4.13c.28.2.52.32.72.37.54.13.91-.25,1.12-1.14.01-.05.04-.06.1-.05.05.01.08.04.07.09-.04.16-.1.4-.2.7-.1.34-.18.64-.24.89-.06.24-.11.51-.17.82-.05.28-.09.51-.13.69-.01.04-.04.06-.1.05-.05-.01-.08-.04-.07-.09.06-.25.06-.48.01-.68-.05-.2-.18-.41-.38-.62s-.51-.47-.92-.77l-6.1-4.49s-.03-.06-.02-.11c.01-.04.03-.07.06-.07l7.53-1.6c.75-.15,1.26-.3,1.54-.47.28-.16.46-.39.53-.69,0-.04.04-.05.09-.04ZM120.03,457.62l.86-3.61.29-.03-.92,3.84-.24-.2Z"/>
    </g>
  </g>
  <g>
    <path class="st4" d="M132.85,230.92c-22.46,9.56-34.79,23.75-36.96,38.77-2.17,15.02,5.66,32.11,24.51,47.63,18.64,15.35,46.48,27.6,79.18,32.31,32.7,4.71,62.87.82,85.09-8.64,22.46-9.56,34.79-23.75,36.96-38.77,2.16-15.02-5.66-32.11-24.51-47.63-18.64-15.35-46.48-27.6-79.18-32.31-32.7-4.71-62.87-.82-85.09,8.64ZM123.06,207.92c27.08-11.53,61.98-15.64,98.45-10.39,36.47,5.25,68.79,19.05,91.51,37.76,22.52,18.54,37.25,43.51,33.36,70.49-3.89,26.98-25.07,46.78-51.9,58.21-27.08,11.53-61.98,15.64-98.45,10.39s-68.79-19.05-91.51-37.76c-22.52-18.54-37.25-43.51-33.36-70.49,3.89-26.98,25.07-46.78,51.9-58.21Z"/>
    <g>
      <path d="M191.24,211.61c.08.14.23.23.46.29.23.06.59.09,1.08.09.03,0,.04.03.04.08s-.01.08-.04.08c-.38,0-.68-.01-.9-.02l-1.22-.03h-.94c-.18.01-.42.02-.71.01-.02,0-.03-.03-.03-.08,0-.06.01-.08.03-.08.35,0,.61-.02.78-.06.16-.04.27-.13.33-.27.06-.13.09-.34.09-.62l.06-6.48c0-.28-.02-.49-.08-.62-.05-.13-.16-.22-.33-.28s-.42-.08-.78-.08c-.02,0-.03-.03-.03-.08,0-.06,0-.08.03-.08l.7.02c.39.02.7.03.94.04.23,0,.5,0,.78-.03.11,0,.29,0,.53-.02.24-.01.45-.02.63-.01.86,0,1.55.21,2.06.59.51.39.77.97.76,1.76,0,.62-.16,1.13-.47,1.55-.31.42-.7.73-1.18.93s-.97.3-1.47.29c-.27,0-.49-.03-.67-.08-.03,0-.04-.02-.04-.07,0-.03,0-.06.02-.08s.03-.04.05-.03c.15.04.32.06.5.06.62,0,1.14-.19,1.57-.59.43-.4.65-.97.65-1.73,0-.74-.19-1.32-.59-1.75-.4-.43-.91-.65-1.53-.65-.34,0-.58.01-.73.05-.15.04-.26.12-.32.26-.07.13-.1.36-.1.68l-.06,6.4c0,.3.03.52.11.65Z"/>
      <path d="M199.13,212.36c-.13-.02-.29-.03-.5-.05-.2-.02-.42-.04-.66-.05l-.95-.04c-.17,0-.4,0-.7-.02-.02,0-.03-.03-.02-.09,0-.06.01-.08.03-.08.35.02.61,0,.78-.03s.28-.12.35-.25.11-.34.12-.62l.34-6.47c.01-.28,0-.49-.05-.62-.05-.13-.15-.23-.31-.29-.16-.06-.42-.1-.77-.12-.02,0-.03-.03-.02-.09,0-.06.01-.08.03-.08l.7.05c.39.04.7.06.94.08.35.02.7.02,1.05.01.41,0,.7,0,.85.02.97.05,1.82.28,2.54.69.73.41,1.28.95,1.66,1.62.38.66.55,1.4.51,2.2-.05.9-.3,1.69-.76,2.36-.46.67-1.06,1.18-1.81,1.52s-1.55.49-2.41.44c-.27-.01-.58-.04-.93-.09ZM201.95,211.87c.59-.28,1.07-.72,1.42-1.31.35-.59.55-1.32.6-2.18.04-.81-.07-1.55-.35-2.23-.27-.68-.68-1.22-1.23-1.63-.55-.41-1.2-.64-1.94-.68-.4-.02-.71-.01-.93.02-.22.04-.39.12-.5.25-.11.13-.17.34-.19.62l-.33,6.29c-.01.28.01.5.08.66.07.16.21.29.43.38.21.09.52.15.92.17.75.04,1.42-.08,2.01-.36Z"/>
      <path d="M205.89,212.66c0-.06.02-.08.04-.08.35.03.62.03.79,0,.17-.03.29-.11.37-.24s.12-.33.15-.61l.6-6.45c.03-.28.01-.49-.03-.62-.05-.14-.15-.24-.31-.3-.16-.07-.41-.12-.77-.15-.02,0-.03-.03-.02-.09,0-.06.02-.08.04-.08l5.6.52c.08,0,.12.05.11.14l-.13,1.72s-.03.04-.08.04-.08-.01-.07-.04c.02-.5-.09-.89-.34-1.19-.24-.3-.59-.47-1.04-.51l-.85-.08c-.32-.03-.55-.03-.72,0-.16.03-.28.1-.36.22-.08.12-.13.29-.15.52l-.6,6.38c-.03.3,0,.52.06.66.07.14.21.25.45.33.23.08.6.14,1.1.19.03,0,.04.03.03.09s-.02.08-.05.08c-.38-.04-.68-.07-.89-.1l-1.25-.13-.95-.07c-.17,0-.41-.02-.71-.05-.02,0-.02-.03-.02-.09ZM210.86,209.21c-.2-.2-.56-.32-1.07-.37l-1.8-.17.03-.29,1.84.17c.49.05.85,0,1.07-.13.22-.13.35-.37.38-.72,0-.02.03-.03.09-.02.06,0,.08.02.08.04l-.12,1.13c-.03.27-.04.47-.04.61l-.05.67s-.03.03-.09.02c-.06,0-.08-.02-.08-.04.04-.41-.04-.71-.25-.91Z"/>
    </g>
  </g>
  <g>
    <path class="st6" d="M76.22,99.76c-30.26,14.26-47.44,34.82-49.76,56.96-2.32,22.15,10.24,45.82,36.89,66.03,26.44,20.05,65.07,35.19,109.68,39.86,44.61,4.67,85.55-2.15,115.56-16.3,30.26-14.26,47.44-34.82,49.76-56.96,2.32-22.14-10.24-45.81-36.89-66.03-26.44-20.05-65.08-35.19-109.69-39.86-44.61-4.67-85.55,2.15-115.56,16.3ZM65.56,77.14c34.79-16.4,80.43-23.61,128.82-18.55,48.38,5.06,91.55,21.56,122.19,44.8,30.43,23.08,50.23,54.36,46.65,88.55-3.58,34.19-29.42,60.7-63.96,76.98-34.79,16.4-80.44,23.61-128.82,18.55-48.38-5.06-91.55-21.56-122.19-44.8C17.82,219.59-1.98,188.31,1.6,154.12c3.58-34.19,29.42-60.69,63.97-76.98Z"/>
    <g>
      <path d="M153.94,73.57c.06.13.17.21.34.25s.42.05.78.04c.03,0,.04.03.05.08,0,.06-.01.08-.04.09-.28.01-.5.02-.67.01l-.99.03-.96.05c-.17.02-.4.03-.69.04-.03,0-.04-.03-.04-.08,0-.06.01-.08.04-.09.35-.01.61-.05.77-.1.16-.05.27-.15.32-.29.05-.14.08-.35.07-.63l-.26-6.48c-.01-.28-.05-.48-.12-.61-.07-.13-.18-.21-.35-.26-.17-.04-.43-.06-.78-.05-.03,0-.04-.03-.05-.08,0-.06.01-.08.04-.09h.69c.39-.01.71-.01.97-.02.28-.01.62-.03,1.01-.07l.66-.04s.04.03.05.08c0,.06-.01.08-.04.09-.35.01-.6.05-.77.12s-.27.16-.32.3c-.05.14-.07.35-.06.63l.26,6.45c.01.29.05.5.11.63Z"/>
      <path d="M157.33,65.5l.34.02-.07,6.88c0,.5.08.84.26,1.05s.49.3.94.3c.02,0,.03.03.03.08,0,.06,0,.08-.03.08-.26,0-.46,0-.6,0h-.76s-.73.01-.73.01c-.13.01-.32.02-.56.02-.02,0-.03-.03-.03-.08,0-.06,0-.08.03-.08.39,0,.67-.11.84-.32.17-.21.26-.56.26-1.05l.07-6.9ZM167.01,73.75c0,.06-.01.08-.04.08-.29,0-.52,0-.69,0h-.97s-.9.02-.9.02c-.15.01-.36.02-.63.02-.02,0-.03-.03-.03-.08s0-.08.03-.08c.32,0,.55-.03.71-.08.15-.05.26-.14.31-.28.05-.13.06-.34.04-.62l-.33-6.76.46-.65-3.56,8.48s-.06.06-.11.06c-.05,0-.09-.02-.13-.05l-3.59-7.46c-.16-.34-.36-.59-.59-.75-.23-.16-.51-.23-.84-.23-.02,0-.03-.03-.03-.08,0-.06,0-.08.03-.08h.52c.09.02.22.02.39.02.17,0,.31,0,.43-.02.12-.01.21-.02.27-.02.12,0,.22.04.3.13s.2.28.35.59l3.26,6.69-.43.73,3.34-7.86c.1-.23.24-.35.42-.35.05,0,.11,0,.2.01.09,0,.21.01.36.01l.66-.02c.1-.01.26-.02.46-.02.02,0,.03.03.03.08,0,.06,0,.08-.03.08-.48,0-.81.08-1.01.21-.2.14-.29.39-.27.77l.34,6.48c.01.29.05.5.11.63.06.13.17.22.33.26.16.05.42.07.77.06.03,0,.04.03.04.08Z"/>
      <path d="M176.96,74.06c0,.06-.02.08-.06.08-.18,0-.45-.02-.82-.05-.37-.03-.64-.05-.81-.05-.21,0-.47,0-.78,0-.3,0-.53.01-.69,0-.04,0-.06-.03-.05-.09,0-.06.02-.08.06-.08.35.01.61-.01.77-.08.16-.06.24-.18.24-.34,0-.14-.05-.34-.15-.59l-2.91-6.66.36-.42-2.91,6.34c-.14.31-.21.57-.22.78-.02.55.43.84,1.35.87.05,0,.07.03.07.09,0,.06-.03.08-.07.08-.17,0-.41-.02-.73-.05-.35-.03-.66-.05-.92-.06-.24,0-.52,0-.84,0-.28.01-.51.01-.7,0-.05,0-.07-.03-.07-.09,0-.06.03-.08.07-.08.26,0,.48-.03.67-.13.19-.09.36-.26.53-.5.17-.24.36-.59.57-1.05l3.16-6.88s.05-.04.1-.04c.05,0,.07.02.08.04l3.1,7.05c.3.7.55,1.17.77,1.42s.48.37.79.38c.04,0,.06.03.05.09ZM170.1,69.81l3.71.11.09.28-3.95-.12.15-.28Z"/>
      <path d="M179.67,73.87c-.73-.46-1.28-1.05-1.63-1.77-.35-.72-.51-1.51-.45-2.34.06-.9.34-1.68.84-2.32.5-.65,1.16-1.12,1.98-1.44.82-.31,1.72-.44,2.71-.37.49.03.96.11,1.39.23.43.12.79.28,1.06.48.07.04.11.08.12.11,0,.03.01.1.01.21l.06,1.66s-.03.04-.08.05c-.05,0-.08,0-.09-.05-.33-1.56-1.25-2.38-2.76-2.48-.74-.05-1.41.08-2.02.37-.61.29-1.11.73-1.49,1.32-.38.59-.6,1.29-.65,2.1-.05.79.06,1.55.34,2.27.28.72.73,1.32,1.35,1.79.62.47,1.39.74,2.33.8.66.04,1.14-.06,1.42-.29.29-.24.45-.67.49-1.29.03-.48.02-.82-.03-1.02s-.17-.33-.38-.41c-.21-.08-.57-.13-1.09-.17-.06,0-.08-.04-.08-.12,0-.03.01-.05.03-.08.02-.02.03-.03.05-.03.72.09,1.31.15,1.76.18.44.03.9.04,1.39.05.02,0,.03.01.05.04.01.02.02.05.02.06,0,.07-.03.1-.08.09-.23-.02-.4,0-.5.06s-.17.2-.21.41c-.04.21-.08.58-.11,1.11-.03.42-.03.72,0,.9.02.18.03.29.03.34,0,.06-.02.09-.04.11-.02.02-.06.03-.13.05-1.15.18-2.14.24-2.97.19-1.02-.07-1.9-.33-2.64-.79Z"/>
      <path d="M187.02,74.75c0-.06.02-.08.04-.08.35.03.61.03.78,0,.17-.03.29-.11.36-.24.07-.13.12-.33.15-.61l.61-6.45c.03-.28.02-.49-.03-.62-.05-.14-.15-.24-.31-.3-.16-.07-.41-.12-.77-.15-.02,0-.03-.03-.02-.09s.02-.08.04-.08l5.6.53c.08,0,.12.05.11.14l-.13,1.72s-.03.04-.08.04c-.05,0-.08-.01-.07-.04.02-.5-.09-.89-.34-1.19-.24-.3-.59-.47-1.03-.51l-.85-.08c-.33-.03-.57-.03-.73,0-.16.04-.28.11-.35.23-.07.12-.12.3-.14.56l-.6,6.33c-.02.25-.01.44.04.57.05.13.14.23.29.29.14.06.37.11.69.14l1.11.11c.45.04.83-.08,1.16-.37.33-.29.57-.71.72-1.25,0-.02.02-.03.06-.02.03,0,.05.01.07.03.02.02.03.03.03.04-.14.58-.24,1.19-.3,1.83,0,.07-.03.13-.06.16-.04.03-.1.04-.18.03l-5.84-.55s-.02-.03-.02-.09ZM192.19,71.16c-.18-.2-.51-.31-.97-.36l-2.09-.2.03-.29,2.13.2c.45.04.77,0,.98-.13.2-.13.32-.37.36-.73,0-.02.03-.03.09-.02.06,0,.08.02.08.04l-.12,1.13c-.03.27-.04.47-.04.61l-.05.67s-.03.03-.09.02c-.06,0-.08-.02-.08-.04.04-.41-.03-.71-.22-.91Z"/>
      <path d="M196.84,69.65c.14.29.33.54.56.75.23.21.55.48.97.82.45.35.79.63,1.04.86.25.23.44.5.6.83.15.32.2.69.15,1.11-.05.44-.21.83-.48,1.17-.27.33-.63.58-1.08.74s-.99.2-1.59.12c-.71-.09-1.35-.33-1.9-.72-.04-.03-.07-.07-.08-.11,0-.04-.01-.1-.01-.17l.05-1.91s.02-.06.07-.06c.05,0,.08.01.08.05.06.67.26,1.28.61,1.82.35.54.86.84,1.52.93.46.06.87-.02,1.22-.24s.56-.6.63-1.16c.05-.42,0-.79-.15-1.12-.15-.33-.34-.61-.58-.84-.24-.23-.57-.51-.99-.83-.41-.32-.73-.6-.96-.82-.23-.23-.42-.5-.56-.81-.14-.32-.19-.68-.14-1.07.06-.46.23-.84.51-1.14.29-.3.63-.51,1.05-.62.41-.11.84-.14,1.29-.09.55.07,1.08.24,1.59.53.13.06.19.15.18.26l-.09,1.6s-.03.07-.08.06c-.05,0-.08-.03-.08-.07,0-.49-.15-.96-.42-1.41-.27-.45-.72-.71-1.33-.79-.52-.06-.92.04-1.22.31-.29.27-.46.63-.52,1.07-.04.36,0,.69.15.98Z"/>
    </g>
  </g>
  <g>
    <path class="st3" d="M120.72,304.48c-16.46,12.97-23.16,27.24-21.66,39.63,1.51,12.39,11.43,24.64,30.51,33.29,18.85,8.55,44.74,12.51,73.07,9.07,28.32-3.44,52.51-13.49,68.77-26.3,16.46-12.97,23.16-27.24,21.66-39.63-1.51-12.39-11.43-24.64-30.52-33.29-18.85-8.55-44.74-12.51-73.07-9.07-28.32,3.44-52.51,13.49-68.77,26.3ZM105.25,284.85c20.42-16.09,49.12-27.58,81.23-31.48,32.1-3.9,62.73.39,86.4,11.12,23.44,10.62,42.05,28.68,45.01,53.05,2.96,24.37-10.79,46.35-31,62.28-20.42,16.09-49.12,27.58-81.23,31.48-32.1,3.9-62.73-.39-86.4-11.12-23.44-10.62-42.05-28.68-45.01-53.05s10.79-46.35,31-62.28Z"/>
    <g>
      <path d="M227.11,269.58c0,.06-.03.08-.06.08-.18-.01-.45-.04-.82-.09-.37-.05-.64-.08-.81-.09-.21-.02-.47-.03-.78-.03-.3,0-.53-.01-.69-.02-.04,0-.05-.03-.05-.09,0-.06.02-.08.06-.08.35.03.61.01.77-.04.16-.05.24-.16.26-.33.01-.14-.03-.34-.12-.6l-2.6-6.78.38-.41-3.2,6.2c-.15.31-.24.56-.25.77-.04.55.39.86,1.31.93.05,0,.07.03.06.09,0,.06-.03.08-.08.08-.17-.01-.41-.04-.72-.08-.35-.05-.66-.08-.92-.1-.24-.02-.52-.03-.84-.04-.28,0-.51-.01-.7-.03-.05,0-.07-.03-.06-.09,0-.06.03-.08.08-.08.26.02.49-.01.67-.1.19-.08.37-.24.56-.48.18-.23.39-.58.62-1.03l3.48-6.73s.05-.04.1-.03c.05,0,.07.02.08.05l2.76,7.19c.26.71.5,1.2.7,1.45.21.25.46.39.77.42.04,0,.05.03.05.09ZM220.45,265.02l3.7.28.08.29-3.94-.3.16-.27Z"/>
      <path d="M234.25,262s-.04-.03-.03-.09c0-.06.03-.08.05-.08l.59.09c.33.06.59.11.79.13.16.02.38.04.68.06l.58.07s.02.03.02.09c0,.06-.02.08-.04.08-.74-.1-1.17.3-1.29,1.21l-.53,3.94c-.14,1.06-.55,1.85-1.23,2.37s-1.51.71-2.51.57c-.68-.09-1.26-.31-1.74-.65-.48-.34-.82-.77-1.04-1.31-.22-.53-.28-1.13-.19-1.8l.6-4.44c.04-.28.04-.48,0-.62-.04-.14-.13-.24-.29-.31-.16-.07-.41-.13-.76-.18-.02,0-.02-.03-.02-.09,0-.06.02-.08.04-.08l.68.11c.39.07.7.12.94.16.25.03.58.07.99.11l.64.07s.04.03.03.09c0,.06-.03.08-.05.08-.34-.05-.6-.05-.77-.02-.17.03-.29.11-.37.24-.07.13-.13.33-.17.61l-.53,3.93c-.15,1.09-.02,1.96.4,2.6.41.64,1.07,1.02,1.96,1.14.83.11,1.52-.06,2.05-.52.53-.46.86-1.15.99-2.08l.54-3.95c.12-.91-.22-1.41-1.02-1.52Z"/>
      <path d="M239,271.52c-.13-.04-.29-.08-.48-.13-.2-.05-.41-.1-.65-.15l-.94-.18c-.17-.02-.4-.07-.69-.12-.02,0-.02-.03-.01-.09.01-.06.03-.08.04-.08.35.07.61.1.78.09.17-.01.3-.08.38-.2.09-.12.16-.32.21-.59l1.29-6.35c.06-.27.07-.48.04-.62-.03-.14-.12-.25-.27-.33-.15-.08-.4-.16-.75-.23-.02,0-.02-.03-.01-.09.01-.05.03-.08.04-.08l.68.15c.38.1.68.17.91.21.35.07.69.13,1.04.17.41.06.69.11.84.14.95.19,1.75.55,2.41,1.06.66.51,1.12,1.13,1.4,1.84.28.71.34,1.46.18,2.25-.18.89-.55,1.63-1.1,2.23-.55.6-1.23,1.01-2.01,1.23-.79.23-1.6.25-2.45.08-.27-.05-.57-.13-.91-.23ZM241.86,271.45c.63-.19,1.16-.55,1.6-1.09.44-.54.74-1.22.91-2.06.16-.8.16-1.55-.01-2.26-.17-.71-.5-1.31-.98-1.8-.48-.49-1.09-.81-1.82-.96-.39-.08-.7-.12-.93-.12-.22,0-.4.06-.53.18-.13.12-.22.31-.28.59l-1.25,6.17c-.06.27-.06.5-.01.67.05.17.17.32.37.44.2.12.5.22.89.3.73.15,1.41.13,2.04-.06Z"/>
      <path d="M247.92,273.01c.02.14.11.25.25.34s.39.17.74.26c.03,0,.03.04.02.09s-.03.08-.06.07c-.27-.07-.49-.13-.65-.18l-.96-.26-.94-.23c-.17-.03-.39-.08-.67-.16-.03,0-.03-.04-.02-.09.01-.05.04-.08.06-.07.34.09.6.13.77.13s.3-.06.39-.18c.09-.12.17-.31.24-.58l1.62-6.28c.07-.27.09-.48.07-.62-.03-.14-.11-.26-.26-.35-.15-.09-.39-.18-.73-.27-.03,0-.03-.04-.02-.09s.03-.08.06-.07l.66.18c.38.12.68.21.93.27.27.07.6.15.98.22l.64.15s.03.04.02.09c-.01.05-.04.08-.06.07-.33-.09-.59-.12-.77-.11-.18.01-.31.08-.4.19-.09.12-.17.31-.24.58l-1.61,6.25c-.07.28-.1.49-.08.63Z"/>
      <path d="M252.1,274.23c-.52-.59-.85-1.28-.99-2.05s-.08-1.55.17-2.33c.3-.91.78-1.62,1.45-2.13.67-.5,1.42-.8,2.25-.9s1.62-.02,2.38.22c.84.27,1.52.71,2.03,1.31.51.6.83,1.28.97,2.04.13.76.08,1.5-.15,2.23-.26.81-.71,1.48-1.36,2.02-.64.54-1.39.89-2.23,1.05-.84.16-1.68.11-2.51-.16-.83-.27-1.5-.7-2.02-1.29ZM256.45,275.47c.58-.14,1.1-.44,1.56-.92.46-.47.82-1.11,1.08-1.9.27-.83.35-1.63.25-2.38-.1-.75-.38-1.4-.82-1.94-.45-.55-1.05-.94-1.8-1.18-.98-.32-1.84-.25-2.6.21s-1.31,1.23-1.66,2.33c-.27.83-.36,1.65-.27,2.44s.35,1.47.78,2.05c.43.58,1,.98,1.71,1.21.6.19,1.2.22,1.77.09Z"/>
    </g>
  </g>
  <g>
    <path class="st1" d="M144.21,352.3c-16.19,5.88-24.41,14.99-26.19,24.09-1.78,9.1,2.41,20.64,15.2,32.18,12.58,11.35,31.94,21.04,55.21,25.59,23.27,4.55,44.86,2.85,60.78-2.93,16.19-5.88,24.41-14.99,26.19-24.09,1.78-9.1-2.41-20.64-15.2-32.18-12.58-11.35-31.94-21.04-55.21-25.59-23.27-4.55-44.86-2.85-60.78,2.93ZM135.68,328.8c20.86-7.57,47.14-9.23,74.1-3.96,26.96,5.27,50.69,16.69,67.17,31.56,16.27,14.68,27.1,34.45,22.99,55.53-4.12,21.09-21.6,35.33-42.19,42.8-20.86,7.57-47.14,9.23-74.11,3.97-26.96-5.27-50.69-16.69-67.16-31.56-16.27-14.67-27.1-34.45-22.99-55.53,4.12-21.09,21.6-35.33,42.19-42.8Z"/>
    <g>
      <path d="M243.56,344.19c.33.24.64.54.92.89.04.06.07.11.06.14,0,.03-.02.1-.05.21l-.53,1.59s-.04.03-.09.01c-.05-.02-.07-.04-.07-.07.25-1.6-.31-2.7-1.67-3.31-.71-.32-1.42-.45-2.11-.38-.69.07-1.32.33-1.88.78-.56.45-1.01,1.06-1.36,1.84-.33.74-.47,1.49-.42,2.26.06.77.28,1.45.68,2.06s.92,1.06,1.58,1.35c.7.31,1.34.4,1.93.25.59-.15,1.15-.52,1.7-1.11,0-.02.03-.02.08,0,.06.03.08.05.07.08l-.76,1.35c-.05.1-.1.16-.12.17-.03.02-.08.03-.14.04-.54.01-1.02-.02-1.45-.11s-.89-.25-1.39-.47c-.89-.4-1.61-.94-2.16-1.6-.54-.67-.87-1.41-.97-2.22-.11-.81.03-1.63.4-2.46.36-.8.88-1.42,1.55-1.86.68-.44,1.44-.67,2.3-.69.85-.03,1.72.16,2.6.55.54.24.97.48,1.3.72Z"/>
      <path d="M244.5,353.95c-.4-.68-.59-1.42-.58-2.2,0-.79.21-1.54.61-2.26.46-.84,1.07-1.45,1.82-1.82.75-.37,1.55-.52,2.38-.46.83.06,1.6.28,2.29.67.78.43,1.36.98,1.75,1.67.39.69.58,1.42.57,2.19s-.2,1.49-.57,2.16c-.41.75-.98,1.32-1.71,1.73-.73.41-1.53.61-2.38.61-.86,0-1.67-.21-2.44-.63-.76-.42-1.34-.97-1.74-1.65ZM248.54,355.99c.59-.03,1.16-.23,1.71-.61.54-.38,1.01-.93,1.41-1.66.42-.77.65-1.53.69-2.29.04-.75-.11-1.44-.44-2.06-.34-.62-.85-1.12-1.55-1.5-.9-.49-1.76-.59-2.59-.28-.83.3-1.52.96-2.07,1.98-.42.77-.66,1.55-.72,2.34-.06.79.07,1.51.38,2.16s.8,1.15,1.46,1.51c.56.3,1.13.44,1.73.42Z"/>
      <path d="M253.49,358.98c-.02.13.02.26.12.37s.29.27.58.45l1.28.83c.45.29.89.39,1.33.29s.87-.36,1.27-.79c.02-.02.04-.02.08.01.04.03.05.06.04.08-.49.6-.88,1.11-1.15,1.54-.04.06-.08.1-.12.11-.04.01-.1,0-.17-.05l-5.41-3.54s0-.04.02-.09.05-.07.07-.06c.3.19.53.32.69.37s.3.03.42-.05c.12-.08.26-.24.41-.48l3.55-5.43c.15-.23.24-.42.27-.56.02-.14-.02-.28-.13-.41-.11-.13-.31-.3-.61-.49-.02-.01,0-.04.02-.09.03-.05.05-.07.07-.05l.57.39c.32.23.58.41.78.54.22.14.5.31.84.51l.57.36s.02.05-.01.09-.06.06-.08.05c-.29-.19-.52-.31-.69-.36-.17-.05-.31-.03-.43.05s-.26.24-.41.48l-3.51,5.37c-.15.23-.23.41-.25.54Z"/>
      <path d="M259.4,363.21c-.28-.74-.35-1.49-.21-2.27.14-.77.46-1.48.97-2.13.59-.76,1.29-1.25,2.1-1.49s1.61-.26,2.42-.06c.81.2,1.53.54,2.15,1.03.7.55,1.18,1.19,1.45,1.94.27.74.34,1.49.2,2.25-.14.76-.45,1.44-.92,2.04-.53.67-1.18,1.14-1.97,1.42-.79.28-1.61.35-2.45.21-.84-.14-1.61-.48-2.3-1.03-.68-.54-1.16-1.17-1.44-1.91ZM263.04,365.89c.59.07,1.18-.03,1.78-.32.6-.28,1.15-.75,1.67-1.41.54-.69.9-1.4,1.06-2.14.16-.74.13-1.44-.1-2.11-.23-.67-.66-1.25-1.28-1.74-.81-.64-1.64-.87-2.51-.71-.87.16-1.66.7-2.37,1.61-.54.69-.91,1.42-1.1,2.19s-.18,1.5.02,2.19c.21.69.6,1.27,1.19,1.73.5.39,1.04.62,1.63.7Z"/>
      <path d="M267.35,369.76c-.04.15,0,.33.13.53s.37.47.72.81c.02.02.01.05-.03.09-.04.04-.07.05-.09.03-.28-.27-.49-.48-.63-.63l-.87-.86-.68-.64c-.13-.12-.31-.28-.52-.49-.01-.01,0-.04.04-.08.04-.04.06-.05.08-.04.25.25.46.41.61.49.15.08.29.09.43.03.13-.06.3-.19.49-.39l4.51-4.66c.2-.2.32-.37.37-.5.05-.13.04-.27-.05-.42-.08-.15-.25-.35-.5-.6-.01-.01,0-.04.04-.08.04-.04.06-.05.08-.04l.49.5c.27.29.49.51.66.67.17.16.37.33.59.52.08.08.21.2.4.35.18.16.34.3.47.42.62.6.98,1.21,1.08,1.85.11.64-.11,1.23-.66,1.8-.43.44-.9.71-1.41.8s-1.01.04-1.49-.14c-.49-.18-.91-.45-1.27-.8-.2-.19-.34-.36-.43-.52-.02-.02-.01-.05.02-.08.02-.02.04-.04.07-.05s.05,0,.05.01c.08.13.19.26.32.39.44.43.96.65,1.54.65.58,0,1.14-.26,1.66-.8.51-.53.77-1.09.78-1.67,0-.58-.21-1.09-.66-1.53-.24-.23-.43-.39-.56-.47-.13-.08-.27-.09-.41-.04-.14.05-.32.19-.54.42l-4.45,4.6c-.21.21-.33.4-.37.55Z"/>
      <path d="M277.58,369.12c.06-.13.06-.28,0-.44-.07-.16-.21-.38-.43-.66-.01-.01,0-.04.05-.07.04-.04.07-.05.08-.03l.44.56c.23.32.42.57.57.75.17.21.39.47.67.78l.43.51s0,.04-.05.07c-.04.04-.07.05-.08.03-.22-.28-.41-.46-.56-.56-.15-.1-.3-.13-.44-.09-.14.04-.32.15-.54.32l-5.02,4.06c-.22.18-.36.33-.43.46-.07.13-.07.28,0,.44s.22.38.45.66c.01.01,0,.04-.05.07-.04.04-.07.05-.08.03-.18-.23-.32-.41-.42-.54l-.62-.79-.62-.74c-.11-.12-.26-.3-.45-.54-.01-.01,0-.04.05-.07.04-.04.07-.05.08-.03.22.28.41.47.55.57.15.1.29.14.43.1.14-.04.32-.15.54-.32l5.04-4.08c.22-.18.36-.33.42-.46ZM281.51,374.01c.07-.13.07-.28,0-.45-.06-.17-.21-.39-.44-.67-.02-.02,0-.05.04-.09s.07-.04.09-.02l.41.53c.24.33.45.6.62.81.16.2.37.44.63.73l.44.52s0,.05-.04.09-.07.04-.09.02c-.22-.28-.41-.46-.55-.56-.15-.1-.29-.13-.43-.09-.14.04-.32.14-.54.32l-5.04,4.08c-.22.18-.36.33-.43.46-.07.13-.07.28,0,.44.07.16.22.38.44.65.02.02,0,.05-.04.09-.04.04-.07.04-.09.02-.18-.23-.32-.41-.42-.54l-.6-.76-.65-.79c-.11-.12-.26-.3-.43-.51-.02-.02,0-.05.04-.09.04-.04.07-.04.09-.02.23.28.41.48.56.58.14.1.29.13.43.09.14-.04.32-.14.54-.32l5.02-4.06c.22-.18.36-.33.43-.46ZM275.15,371.73l3.94,4.87-.23.18-3.94-4.87.23-.19Z"/>
      <path d="M278.2,382.9c.03-.79.26-1.51.7-2.17.43-.66,1.01-1.18,1.73-1.58.84-.46,1.68-.65,2.52-.55.83.1,1.59.39,2.25.9.67.5,1.19,1.1,1.57,1.79.43.78.62,1.56.58,2.35-.04.79-.27,1.5-.7,2.15s-.97,1.15-1.64,1.52c-.74.41-1.54.59-2.37.53-.84-.05-1.62-.31-2.34-.77-.72-.46-1.29-1.08-1.71-1.85-.42-.76-.61-1.54-.58-2.32ZM280.5,386.79c.51.3,1.1.43,1.76.41s1.36-.24,2.08-.64c.77-.42,1.37-.94,1.81-1.55.44-.61.69-1.27.74-1.98.05-.7-.12-1.4-.5-2.1-.49-.9-1.17-1.44-2.03-1.63-.86-.19-1.8,0-2.81.55-.77.42-1.39.95-1.87,1.58-.48.63-.76,1.31-.84,2.02s.06,1.4.42,2.06c.3.56.71.98,1.23,1.28Z"/>
      <path d="M289.84,388.5l.06.32-6.62,1.86c-.47.13-.78.31-.93.53s-.18.52-.08.89c0,.03-.02.05-.07.06-.05.02-.08,0-.09-.02-.06-.22-.11-.4-.13-.52l-.18-.68-.21-.68c-.04-.12-.1-.31-.17-.55,0-.02.02-.03.07-.05.05-.02.08-.01.09,0,.11.39.29.63.54.74.25.1.6.09,1.07-.04l6.64-1.87ZM283.42,397.57s-.03-.08-.01-.1l5.76-8.31c.27-.39.44-.72.51-1s.08-.53,0-.77c0-.03.02-.05.07-.06s.08,0,.09.02l.13.5c.02.11.06.26.11.45.06.2.11.36.15.48.04.12.08.22.1.29.02.06.02.12,0,.17-.02.05-.07.12-.16.2-.13.15-.25.31-.36.47l-5.1,7.25-1.24.46s-.04-.01-.06-.06ZM283.48,397.63l.33-.43,6.68-1.88c.47-.13.78-.31.94-.52.16-.22.19-.51.09-.88,0-.02.02-.03.07-.05.05-.02.08-.01.09,0l.13.53c.06.27.11.5.16.67.05.16.12.38.22.67l.17.55s-.02.05-.07.06-.08,0-.09-.02c-.11-.38-.29-.62-.54-.73s-.62-.1-1.08.03l-7.1,2Z"/>
    </g>
  </g>
  <g>
    <path class="st2" d="M82.22,192.87c-22.5,17.35-33.06,37.76-31.22,56.96,1.84,19.2,16.09,37.24,41.47,50,25.21,12.67,59.74,19.11,97.52,15.49,37.78-3.62,70.46-16.5,92.8-33.73,22.49-17.35,33.06-37.77,31.22-56.96-1.84-19.2-16.09-37.24-41.47-50-25.21-12.67-59.74-19.11-97.52-15.49-37.78,3.62-70.46,16.5-92.8,33.73ZM66.95,173.07c26.62-20.53,63.96-34.82,105.68-38.81,41.72-4,81.1,2.94,111.13,18.03,29.86,15.01,52.17,39.15,55.12,69.95,2.95,30.8-14.37,58.73-40.83,79.14-26.62,20.53-63.96,34.82-105.68,38.82-41.72,4-81.1-2.94-111.13-18.04-29.86-15.01-52.17-39.15-55.12-69.95-2.95-30.8,14.37-58.74,40.83-79.14Z"/>
    <g>
      <path d="M232.56,144.38c0,.06-.03.08-.05.08-.31-.05-.6,0-.85.13-.26.13-.49.38-.71.76l-4.05,6.94s-.07.05-.16.03c-.07-.01-.12-.04-.14-.08l-2.33-8c-.1-.38-.23-.66-.38-.84s-.37-.28-.65-.32c-.03,0-.04-.03-.03-.09,0-.06.03-.08.05-.08l.52.09c.26.06.46.1.62.12.36.05.75.1,1.18.15l.58.07s.04.03.03.09c0,.06-.03.08-.05.08-.57-.08-.88.03-.93.34-.02.12,0,.28.06.48l2.02,6.99-.52.57,3.88-6.68c.1-.16.16-.31.18-.43.03-.19-.04-.35-.2-.47-.16-.12-.43-.21-.8-.26-.03,0-.04-.03-.03-.09,0-.06.03-.08.05-.08l.59.1c.31.06.6.12.85.16.19.03.41.05.66.07l.58.07s.04.03.03.09Z"/>
      <path d="M233.95,152.98c.03.14.12.25.27.32.15.08.4.15.75.21.03,0,.04.04.03.09,0,.06-.03.08-.06.07-.27-.05-.49-.1-.66-.14l-.97-.19-.95-.16c-.17-.02-.39-.06-.68-.11-.03,0-.04-.04-.03-.09,0-.05.03-.08.06-.07.35.06.61.09.78.07.17-.02.3-.08.38-.21.08-.12.15-.32.2-.6l1.18-6.37c.05-.28.06-.48.02-.62-.04-.14-.13-.25-.28-.33s-.4-.15-.75-.22c-.03,0-.04-.04-.03-.09,0-.06.03-.08.06-.08l.67.14c.38.09.7.16.94.2.28.05.61.1,1,.16l.65.11s.04.04.03.09c0,.06-.03.08-.06.08-.34-.06-.6-.08-.77-.06-.17.02-.3.1-.38.22-.08.12-.15.32-.2.6l-1.17,6.35c-.05.28-.06.5-.03.63Z"/>
      <path d="M238.68,154.45c-.12-.04-.29-.08-.48-.14-.19-.05-.41-.11-.65-.16l-.93-.19c-.17-.03-.39-.07-.69-.14-.02,0-.02-.03,0-.09.01-.05.03-.08.05-.08.35.08.6.11.77.1.17,0,.3-.07.39-.19s.16-.31.23-.59l1.42-6.33c.06-.27.08-.48.05-.62s-.11-.25-.26-.34c-.15-.09-.4-.17-.74-.25-.02,0-.02-.03,0-.09.01-.05.03-.08.05-.08l.68.17c.38.1.68.18.91.23.35.08.69.14,1.03.19.4.07.68.12.84.16.95.21,1.74.58,2.39,1.11.65.53,1.1,1.15,1.37,1.87.26.72.31,1.47.13,2.25-.2.88-.58,1.62-1.15,2.2s-1.25.98-2.04,1.19-1.61.22-2.45.03c-.26-.06-.57-.14-.91-.25ZM241.53,154.44c.63-.18,1.17-.53,1.62-1.06s.77-1.21.95-2.05c.18-.79.19-1.55.03-2.26-.16-.71-.47-1.32-.94-1.82s-1.07-.83-1.8-.99c-.39-.09-.7-.13-.92-.14-.22,0-.4.05-.53.17s-.23.31-.29.58l-1.38,6.15c-.06.27-.07.5-.03.67.04.17.16.32.36.45.2.13.49.23.88.32.73.16,1.41.16,2.04-.02Z"/>
      <path d="M245.28,155.88c.01-.05.03-.08.05-.07.34.09.6.14.77.14s.3-.06.4-.17.18-.31.25-.58l1.72-6.25c.07-.27.1-.48.08-.62-.02-.14-.11-.26-.25-.35s-.39-.19-.73-.28c-.02,0-.02-.03,0-.09.01-.05.03-.08.05-.07l5.43,1.49c.08.02.11.07.09.15l-.43,1.67s-.04.04-.09.03c-.05,0-.07-.03-.06-.05.1-.48.06-.9-.13-1.23-.19-.34-.5-.56-.93-.68l-.82-.23c-.32-.09-.56-.13-.72-.12s-.29.06-.39.16-.17.28-.24.53l-1.68,6.13c-.07.24-.09.43-.06.57.03.14.1.25.24.33.13.08.35.17.66.25l1.08.3c.43.12.83.06,1.21-.16.37-.23.68-.6.93-1.11,0-.02.03-.02.06-.01.03,0,.05.02.07.04.02.02.03.03.02.04-.24.54-.44,1.13-.61,1.75-.02.07-.05.12-.09.14-.04.02-.1.02-.18,0l-5.66-1.55s-.02-.03,0-.09ZM250.99,153.24c-.15-.22-.44-.4-.89-.52l-2.03-.56.08-.28,2.07.57c.43.12.76.13.98.04.22-.09.38-.31.48-.65,0-.02.03-.02.09,0,.05.02.08.03.07.05l-.31,1.09c-.07.26-.12.46-.15.6l-.17.65s-.03.02-.09,0c-.05-.02-.08-.03-.07-.05.11-.4.09-.71-.06-.93Z"/>
      <path d="M254.54,158.16c-.51-.6-.84-1.29-.97-2.06-.13-.78-.07-1.55.19-2.33.3-.91.79-1.62,1.47-2.11.68-.5,1.43-.79,2.26-.88.83-.09,1.62,0,2.38.24.84.28,1.51.72,2.02,1.33.51.61.82,1.29.95,2.05.12.76.07,1.5-.17,2.23-.27.81-.73,1.47-1.38,2.01-.65.53-1.4.87-2.24,1.03-.84.15-1.68.09-2.51-.19s-1.49-.71-2.01-1.31ZM258.87,159.44c.58-.13,1.1-.43,1.57-.9.47-.47.83-1.1,1.09-1.89.28-.83.37-1.62.27-2.37s-.36-1.4-.8-1.95-1.04-.95-1.79-1.2c-.97-.32-1.84-.26-2.6.18-.76.45-1.32,1.22-1.69,2.32-.28.83-.38,1.64-.29,2.43.08.79.34,1.47.76,2.05.43.58.99.99,1.7,1.22.6.2,1.19.23,1.77.1Z"/>
      <path d="M266.07,156.16c.07.32.18.61.35.87.17.26.41.61.73,1.04.34.45.61.81.79,1.09.18.28.3.6.37.95.07.35.02.72-.13,1.11-.17.42-.42.75-.76,1.01-.34.26-.75.4-1.23.44-.48.04-1-.06-1.57-.28-.67-.26-1.22-.66-1.66-1.18-.03-.04-.05-.08-.05-.12,0-.04.01-.1.03-.17l.53-1.84s.03-.05.08-.04c.05.01.07.03.07.07-.11.67-.07,1.3.13,1.91.2.61.61,1.03,1.24,1.28.43.17.85.2,1.24.08.39-.12.69-.44.9-.96.15-.39.2-.76.14-1.12-.06-.35-.18-.67-.35-.96-.17-.28-.42-.64-.75-1.06-.32-.42-.56-.76-.73-1.04-.17-.28-.28-.59-.33-.93-.05-.34,0-.7.14-1.07.17-.43.43-.76.79-.98.35-.22.74-.33,1.17-.33s.85.07,1.27.24c.51.2.98.51,1.4.92.11.1.15.19.11.3l-.5,1.52s-.05.06-.1.04-.07-.05-.06-.09c.12-.48.1-.97-.05-1.47s-.51-.87-1.09-1.1c-.49-.19-.9-.19-1.25,0-.35.19-.61.49-.77.91-.13.34-.17.67-.1.98Z"/>
    </g>
  </g>
  <g>
    <path class="st0" d="M80.12,69.82c-28.02,21.36-41.44,46.57-38.99,70.38,2.46,23.81,20.74,45.75,52.53,60.93,31.57,15.08,74.58,22.39,121.43,17.56,46.85-4.83,87.46-20.77,115.29-41.98,28.02-21.36,41.44-46.57,38.99-70.38-2.46-23.81-20.74-45.75-52.53-60.94-31.57-15.08-74.58-22.39-121.43-17.56-46.85,4.83-87.46,20.77-115.29,41.98ZM64.96,49.94C97.01,25.52,142.18,8.2,192.84,2.98c50.66-5.23,98.41,2.5,134.77,19.87,36.13,17.26,62.94,45.17,66.63,80.93,3.69,35.76-16.85,68.55-48.7,92.83-32.05,24.42-77.22,41.74-127.88,46.96-50.66,5.23-98.41-2.5-134.77-19.87-36.13-17.26-62.94-45.17-66.63-80.93-3.69-35.76,16.85-68.56,48.7-92.83Z"/>
    <g>
      <path d="M263.2,20.53c.04.13.13.23.27.29.14.06.38.12.71.17l1.51.23c.53.08.97-.01,1.33-.29.36-.27.64-.69.83-1.24,0-.03.03-.04.08-.02.05.01.07.03.07.06-.2.75-.34,1.38-.42,1.88-.01.07-.03.12-.07.15-.03.03-.09.04-.17.02l-6.39-1s-.02-.03-.01-.09c0-.06.02-.08.04-.08.35.05.61.07.78.05.17-.02.29-.09.37-.22.08-.12.14-.33.18-.6l1-6.4c.04-.28.05-.48.01-.62-.04-.14-.13-.24-.28-.32s-.41-.14-.76-.2c-.02,0-.02-.03-.01-.09,0-.06.02-.08.04-.08l.68.12c.38.08.7.14.94.17.26.04.58.08.97.12l.67.09s.04.03.03.09c0,.06-.03.08-.05.08-.34-.05-.6-.07-.77-.04s-.3.1-.38.22c-.08.13-.14.33-.18.6l-.99,6.34c-.04.27-.04.47,0,.59Z"/>
      <path d="M270.64,21.88c.03.14.12.25.28.32.15.08.4.14.75.21.03,0,.04.04.03.09s-.03.08-.06.08c-.28-.05-.5-.09-.66-.13l-.98-.19-.95-.16c-.17-.02-.39-.06-.68-.11-.03,0-.04-.03-.03-.09s.03-.08.06-.08c.35.06.61.09.78.07s.3-.09.38-.21c.08-.12.15-.32.2-.6l1.16-6.38c.05-.28.06-.48.02-.62-.04-.14-.13-.25-.28-.33s-.4-.15-.75-.21c-.03,0-.04-.04-.03-.09s.03-.08.06-.08l.67.14c.38.09.7.15.95.2.28.05.61.1,1,.15l.65.1s.04.04.03.09-.03.08-.06.08c-.34-.06-.6-.08-.77-.05-.18.02-.3.1-.38.22-.08.12-.14.32-.19.6l-1.15,6.35c-.05.28-.06.5-.03.63Z"/>
      <path d="M275.58,14.73l.31.09-1.44,6.72c-.1.47-.09.83.04,1.07.12.24.37.4.75.48.03,0,.04.04.02.09s-.03.08-.06.07c-.23-.05-.4-.09-.52-.12l-.68-.16-.7-.14c-.13-.02-.32-.05-.56-.11-.02,0-.02-.03,0-.09s.03-.08.04-.08c.39.08.69.04.9-.13.21-.17.36-.49.46-.97l1.44-6.75ZM280.61,24.64s-.08-.01-.09-.03l-4.67-8.97c-.22-.42-.43-.72-.64-.92-.21-.19-.44-.31-.67-.37-.03,0-.04-.04-.02-.09.01-.06.03-.08.06-.07l.5.12c.11.03.26.07.45.11.2.04.37.07.5.09.13.02.23.04.3.05.06.01.11.04.15.08.03.04.07.12.1.23.07.19.16.37.24.54l4.04,7.89-.17,1.31s-.03.03-.08.03ZM280.69,24.62l-.22-.49,1.45-6.79c.1-.47.09-.83-.02-1.08-.11-.24-.36-.41-.73-.49-.02,0-.02-.03,0-.09s.03-.08.04-.08l.53.13c.27.08.49.13.67.17.16.04.39.08.69.12l.56.11s.04.04.02.09-.03.08-.06.07c-.38-.08-.68-.04-.9.14-.22.17-.38.5-.48.97l-1.54,7.21Z"/>
      <path d="M285.55,17.15c-.02-.14-.11-.26-.25-.35-.15-.09-.39-.18-.73-.27-.02,0-.02-.03,0-.09.01-.05.03-.08.05-.07l.67.19c.37.12.67.2.9.26.26.07.58.14.97.22l.64.15s.03.04.02.09c-.01.05-.04.08-.06.07-.33-.09-.59-.12-.76-.11-.17.01-.3.08-.4.19s-.17.31-.24.58l-1.62,6.25c-.07.28-.1.49-.08.63.02.14.11.25.25.34.15.09.39.17.73.26.03,0,.03.04.02.09-.01.05-.03.08-.06.07-.27-.07-.49-.13-.65-.18l-.94-.26-.93-.23c-.17-.03-.39-.09-.68-.16-.02,0-.02-.03,0-.09.01-.05.03-.08.05-.07.34.09.6.13.77.13.17,0,.3-.06.39-.18s.17-.31.24-.58l1.62-6.27c.07-.27.09-.48.07-.62ZM289.88,18.2c.05-.18-.2-.34-.73-.48-.02,0-.02-.03,0-.09.01-.05.03-.08.05-.07l.58.16c.36.11.68.21.98.28.3.08.61.15.94.22l.5.12s.03.04.02.09c-.01.05-.03.08-.06.07-.37-.1-.79-.12-1.24-.06-.46.06-.91.21-1.37.47l-4.35,2.5-.34-.09,4.4-2.58c.38-.22.58-.4.62-.55ZM286.03,20.79l.82-.37,1.33,3.03c.44,1.03.78,1.77,1.04,2.21s.47.72.65.83c.17.11.44.22.8.31.03,0,.03.04.02.09-.01.05-.03.08-.06.07l-1.52-.39c-.07-.02-.2-.05-.39-.09s-.39-.34-.6-.89c-.21-.55-.42-1.06-.63-1.53l-1.45-3.27Z"/>
      <path d="M294.55,21.73c.09.31.23.59.42.83.19.25.46.57.82.97.38.42.67.76.88,1.02.2.27.35.57.45.92.1.35.08.72-.04,1.12-.13.43-.35.79-.67,1.07-.32.28-.72.47-1.19.54-.48.08-1,.03-1.59-.15-.69-.21-1.27-.55-1.75-1.03-.04-.04-.06-.08-.06-.12,0-.04,0-.1.01-.17l.37-1.88s.03-.05.08-.05c.05,0,.08.03.07.07-.06.67.04,1.31.3,1.89.25.59.7.98,1.34,1.17.45.13.86.12,1.24-.03.38-.15.65-.5.81-1.04.12-.4.13-.78.04-1.13-.09-.35-.24-.66-.43-.93s-.48-.6-.84-.99c-.35-.39-.62-.71-.81-.97-.19-.26-.33-.56-.41-.9-.08-.34-.07-.7.05-1.08.13-.45.37-.79.7-1.04s.71-.39,1.14-.43c.43-.04.85,0,1.28.13.53.16,1.02.42,1.47.79.12.09.17.18.13.29l-.36,1.56s-.04.06-.09.04c-.05-.01-.07-.04-.07-.08.08-.48.02-.97-.18-1.46-.19-.49-.59-.83-1.18-1-.5-.15-.92-.12-1.25.1-.33.22-.56.54-.69.97-.1.35-.11.68-.02.99Z"/>
    </g>
  </g>
</svg>