<svg width="351" height="128" viewBox="0 0 351 128" fill="none" xmlns="http://www.w3.org/2000/svg">
<path d="M9.09504 63C2.81705 63 0 60.5967 0 53.5586L0 36.6417C0 36.1248 0.419062 35.7057 0.936 35.7057H7.75661C8.27355 35.7057 8.69261 36.1248 8.69261 36.6417L8.69261 52.2711C8.69261 53.9019 8.7731 53.9877 9.17553 53.9877C9.57797 53.9877 9.65845 53.9019 9.65845 52.2711L9.65845 37.6798C9.65845 37.0314 9.65845 36.536 9.45508 36.1214C9.4311 36.0726 9.40878 36.023 9.38728 35.973C9.1024 35.3103 8.12357 34.6124 5.87556 32.9591C1.20731 29.6117 0.0804871 27.8093 0 23.6894L0 8.66894C0 3.00409 3.62192 0 9.41699 0C15.1316 0 18.4315 2.91826 18.4315 7.63897L18.4315 23.0109C18.4315 23.5278 18.0125 23.9469 17.4955 23.9469L10.5945 23.9469C10.0775 23.9469 9.65845 23.5278 9.65845 23.0109L9.65845 9.95641C9.65845 8.49728 9.57797 8.41145 9.17553 8.41145C8.7731 8.41145 8.69261 8.49728 8.69261 9.95641L8.69261 22.4019C8.69261 22.8026 8.76278 23.2033 8.8376 23.5342C8.84806 23.5804 8.86166 23.6258 8.88247 23.6684C9.17225 24.2614 10.2559 25.0623 13.3609 27.3801C17.2242 30.2125 18.4315 31.9292 18.4315 36.3924V53.3869C18.4315 60.5967 15.2121 63 9.09504 63Z" fill="black"/>
<path d="M38.52 63C26.5009 63 19.6328 58.4274 19.6328 45.1331L19.6328 17.8669C19.6328 5.41935 26.5913 0 38.9719 0C51.8947 0 57.4976 5.16532 57.4976 17.8669L57.4976 29.5329C57.4976 30.0499 57.0786 30.4689 56.5616 30.4689L40.3597 30.4689C39.8428 30.4689 39.4237 30.0499 39.4237 29.5329L39.4237 17.8669C39.4237 14.6492 39.1526 14.5645 38.52 14.5645C37.526 14.5645 37.526 14.8185 37.526 17.8669L37.526 44.5403C37.526 47.5887 37.7067 47.8427 38.52 47.8427C39.243 47.8427 39.4237 47.5887 39.4237 44.5403V32.7149C39.4237 32.198 39.8428 31.7789 40.3597 31.7789L56.5616 31.7789C57.0786 31.7789 57.4976 32.198 57.4976 32.7149L57.4976 45.1331C57.4976 57.8347 50.3584 63 38.52 63Z" fill="black"/>
<path d="M95.5547 63C70.1626 63 58.6992 55.9714 58.6992 37.3714L58.6992 0.936C58.6992 0.419062 59.1183 0 59.6352 0L93.3861 0C93.903 0 94.3221 0.419061 94.3221 0.936V37.1143C94.3221 39.7714 94.8151 40.2 95.9245 40.2C97.2803 40.2 97.5269 39.7714 97.5269 37.1143V0.936001C97.5269 0.419063 97.9459 0 98.4629 0L132.09 0C132.607 0 133.026 0.419061 133.026 0.936V37.3714C133.026 43.8 131.424 48.8571 128.342 52.6286C122.056 60.0857 110.716 63 95.5547 63Z" fill="black"/>
<path d="M135.565 63C135.048 63 134.629 62.5809 134.629 62.064V0.936002C134.629 0.419063 135.048 0 135.565 0L150.173 0C150.69 0 151.109 0.419061 151.109 0.936V44.4765C151.109 44.9934 151.528 45.4125 152.045 45.4125H158.736C159.253 45.4125 159.672 45.8316 159.672 46.3485V62.064C159.672 62.5809 159.253 63 158.736 63H135.565Z" fill="black"/>
<path d="M172.263 43.925C171.746 43.925 171.327 44.3441 171.327 44.861V62.064C171.327 62.5809 170.908 63 170.391 63H161.811C161.294 63 160.875 62.5809 160.875 62.064V0.936002C160.875 0.419063 161.294 0 161.811 0L172.861 0C180.149 0 183.313 3.0625 183.313 7.875V35C183.313 40.25 180.437 43.925 172.957 43.925H172.263ZM171.519 8.05C171.413 8.05 171.327 8.13586 171.327 8.24178V34.8082C171.327 34.9141 171.413 35 171.519 35C172.286 35 172.478 34.9125 172.478 34.125V8.925C172.478 8.3125 172.19 8.05 171.519 8.05Z" fill="black"/>
<path d="M210.204 16.3625C209.687 16.3625 209.268 16.7816 209.268 17.2985V62.064C209.268 62.5809 208.849 63 208.332 63H192.153C191.636 63 191.217 62.5809 191.217 62.064V17.2985C191.217 16.7816 190.798 16.3625 190.281 16.3625H185.452C184.935 16.3625 184.516 15.9434 184.516 15.4265V0.936C184.516 0.419062 184.935 0 185.452 0L215.033 0C215.55 0 215.969 0.419062 215.969 0.936V15.4265C215.969 15.9434 215.55 16.3625 215.033 16.3625H210.204Z" fill="black"/>
<path d="M217.773 0.936002C217.773 0.419063 218.192 0 218.709 0L227.856 0C228.373 0 228.792 0.419061 228.792 0.936V62.064C228.792 62.5809 228.373 63 227.856 63H218.709C218.192 63 217.773 62.5809 217.773 62.064V0.936002Z" fill="black"/>
<path d="M252.273 62.064C252.273 62.5809 251.854 63 251.337 63H231.534C231.017 63 230.598 62.5809 230.598 62.064V0.936002C230.598 0.419063 231.017 0 231.534 0L256.061 0C256.5 0 256.874 0.279241 256.969 0.708017C258.199 6.26685 266.274 42.6791 266.686 42.6125C267.117 42.5426 261.909 14.138 261.594 12.4188C261.583 12.363 261.579 12.3089 261.579 12.2522V0.936C261.579 0.419062 261.998 0 262.515 0L281.751 0C282.268 0 282.687 0.419061 282.687 0.936V62.064C282.687 62.5809 282.268 63 281.751 63H258.245C257.806 63 257.432 62.7205 257.336 62.2919C256.12 56.8068 248.224 21.312 247.62 21.35C246.987 21.3898 251.934 47.0692 252.257 48.7398C252.268 48.7984 252.273 48.855 252.273 48.9147V62.064Z" fill="black"/>
<path d="M324.134 55.7642C323.982 54.6594 321.415 54.5271 320.893 55.5124C318.371 60.2744 313.467 63 304.878 63C299.471 63 295.336 62.16 292.262 60.564C286.113 57.204 283.887 49.896 283.887 37.212V26.544C283.887 7.98 296.184 0 318.766 0C341.347 0 351.312 7.644 350.994 24.444C350.994 24.8151 350.693 25.116 350.322 25.116H320.012C319.733 25.116 319.508 24.8904 319.508 24.612C319.508 21 319.296 20.664 317.706 20.664C317.175 20.664 316.751 20.748 316.433 21C315.903 21.42 315.691 22.848 315.691 26.46V39.564C315.691 44.436 316.115 45.108 318.342 45.108C319.898 45.108 320.743 44.1056 320.944 42.263C321.001 41.7492 320.573 41.328 320.056 41.328H318.854C318.337 41.328 317.918 40.9089 317.918 40.392V28.152C317.918 27.6351 318.337 27.216 318.854 27.216H350.058C350.575 27.216 350.994 27.6351 350.994 28.152V62.064C350.994 62.5809 350.575 63 350.058 63L325.943 63C325.475 63 325.079 62.6547 325.016 62.1912L324.134 55.7642Z" fill="black"/>
<path d="M28.5465 108.788C28.5465 108.531 28.3377 108.322 28.08 108.322C27.8224 108.322 27.6136 108.531 27.6136 108.788L27.6136 125.097C27.6136 125.614 27.1945 126.033 26.6776 126.033L0.936001 126.033C0.419063 126.033 0 125.614 0 125.097L0 66.2458C0 65.7289 0.419062 65.3098 0.936 65.3098L26.6776 65.3098C27.1945 65.3098 27.6136 65.7289 27.6136 66.2458V82.4699C27.6136 82.7275 27.8224 82.9363 28.08 82.9363C28.3377 82.9363 28.5465 82.7275 28.5465 82.4699V66.2458C28.5465 65.7289 28.9655 65.3098 29.4825 65.3098L56.5003 65.3098C57.0172 65.3098 57.4363 65.7289 57.4363 66.2458V125.097C57.4363 125.614 57.0172 126.033 56.5003 126.033L29.4825 126.033C28.9655 126.033 28.5465 125.614 28.5465 125.097L28.5465 108.788Z" fill="black"/>
<path d="M72.9571 122.272C72.9265 121.779 72.5173 121.394 72.0228 121.394H70.1652C69.6707 121.394 69.2615 121.779 69.231 122.272L69.0526 125.155C69.022 125.648 68.6129 126.033 68.1184 126.033H59.0599C58.5082 126.033 58.0761 125.558 58.1281 125.009L63.6929 66.1577C63.7384 65.677 64.142 65.3098 64.6248 65.3098H77.2235C77.7043 65.3098 78.1069 65.6741 78.1549 66.1525L84.0536 125.003C84.1088 125.554 83.6761 126.033 83.1223 126.033H74.0697C73.5752 126.033 73.166 125.648 73.1354 125.155L72.9571 122.272ZM70.2599 107.184C70.2296 107.663 70.6104 108.069 71.0909 108.069C71.5737 108.069 71.9553 107.66 71.9215 107.178L71.4098 99.8881L71.0079 87.4905L70.7208 99.8881L70.2599 107.184Z" fill="black"/>
<path d="M107.005 109.418C106.882 109.418 106.783 109.518 106.783 109.64V125.097C106.783 125.614 106.364 126.033 105.847 126.033L85.4985 126.033C84.9816 126.033 84.5625 125.614 84.5625 125.097V66.2458C84.5625 65.7289 84.9816 65.3098 85.4985 65.3098L111.004 65.3098C116.06 65.3098 120.226 65.9845 123.67 67.0809C130.503 69.5267 133.336 74.8399 133.336 84.4544C133.336 88.1652 132.669 91.0327 131.28 93.0568C128.614 97.0207 124.281 98.3701 117.948 98.7918C124.337 98.7918 128.225 99.6351 130.447 102.081C132.614 104.695 133.336 109.25 133.336 117.009V120.551C133.336 122.409 133.336 124.099 133.336 125.097C133.336 125.614 132.922 126.033 132.405 126.033C127.384 126.033 113.447 126.033 109.713 126.033C109.196 126.033 108.782 125.614 108.782 125.097V111.527C108.782 109.756 108.338 109.418 107.005 109.418ZM107.719 89.0086C107.202 89.0086 106.783 89.4277 106.783 89.9446V93.7232C106.783 94.2402 107.202 94.6592 107.719 94.6592H108.283C109.616 94.6592 110.227 93.6472 110.227 91.7074C110.227 89.9363 109.616 89.0086 108.283 89.0086H107.719Z" fill="black"/>
<path d="M159.352 125.097C159.352 125.614 158.933 126.033 158.416 126.033H135.026C134.509 126.033 134.09 125.614 134.09 125.097V66.2458C134.09 65.7289 134.509 65.3098 135.026 65.3098L168.07 65.3098C168.546 65.3098 168.946 65.6673 169 66.1404L171.018 83.9484L171.386 99.4665L171.937 83.864L174.22 66.1263C174.281 65.6594 174.678 65.3098 175.149 65.3098L207.47 65.3098C207.987 65.3098 208.406 65.7289 208.406 66.2458V125.097C208.406 125.614 207.987 126.033 207.47 126.033H183.988C183.471 126.033 183.052 125.614 183.052 125.097V113.213L186.783 82.093L178.785 125.267C178.703 125.711 178.316 126.033 177.865 126.033L164.363 126.033C163.909 126.033 163.52 125.707 163.441 125.259L155.833 82.093L159.352 113.298V125.097Z" fill="black"/>
<path d="M231.885 127.171C226.995 127.171 222.835 126.416 219.478 124.822C212.618 121.634 209.188 114.672 209.188 102.088V90.0084C209.188 83.7168 210.136 78.7674 211.961 74.9086C215.756 67.2748 222.689 64.1709 232.104 64.1709C236.775 64.1709 240.789 65.0098 244.293 66.6875C251.153 70.2108 255.021 77.4252 255.021 90.0084V102.088C255.021 108.128 254.072 112.994 252.321 116.685C248.672 124.067 241.738 127.171 231.885 127.171ZM232.104 107.038C232.907 107.038 233.126 106.451 233.126 104.353V86.569C233.126 84.4718 232.907 84.0524 232.104 84.0524C231.447 84.0524 231.083 84.3879 231.083 86.6529V104.437C231.083 106.451 231.447 107.038 232.104 107.038Z" fill="black"/>
<path d="M266.49 125.097C266.49 125.614 266.071 126.033 265.554 126.033H256.803C256.286 126.033 255.867 125.614 255.867 125.097V66.2458C255.867 65.7289 256.286 65.3098 256.803 65.3098L267.875 65.3098C268.353 65.3098 268.751 65.6462 268.804 66.1207C269.442 71.907 273.291 106.697 273.553 106.382C273.834 106.044 271.144 78.1721 271.052 77.226C271.05 77.1961 271.05 77.1863 271.05 77.1562V66.2458C271.05 65.7289 271.469 65.3098 271.986 65.3098H280.458C280.975 65.3098 281.394 65.7289 281.394 66.2458V125.097C281.394 125.614 280.975 126.033 280.458 126.033L269.888 126.033C269.41 126.033 269.011 125.694 268.96 125.219C268.337 119.48 264.612 85.353 264.209 85.8881C263.779 86.4604 266.379 111.319 266.486 112.338C266.49 112.37 266.49 112.386 266.49 112.419V125.097Z" fill="black"/>
<path d="M302.472 126.033C301.955 126.033 301.536 125.614 301.536 125.097V106.929C301.536 106.791 301.506 106.655 301.447 106.53L282.626 66.6453C282.333 66.0244 282.786 65.3098 283.473 65.3098L311.327 65.3098C311.725 65.3098 312.079 65.5612 312.211 65.9366L315.693 75.8844C315.725 75.9747 315.742 76.0678 315.745 76.1635C315.79 77.5947 316.163 89.3012 316.39 89.2616C316.617 89.2219 317.102 77.484 317.156 76.1447C317.16 76.0591 317.175 75.9793 317.201 75.8979L320.433 65.9564C320.559 65.5708 320.918 65.3098 321.324 65.3098L349.523 65.3098C350.209 65.3098 350.662 66.0244 350.369 66.6453L331.549 106.53C331.49 106.655 331.459 106.791 331.459 106.929V125.097C331.459 125.614 331.04 126.033 330.523 126.033L302.472 126.033Z" fill="black"/>
</svg>
